<svg xmlns="http://www.w3.org/2000/svg" xmlns:xlink="http://www.w3.org/1999/xlink" viewBox="0 0 1024 632.464">
    <defs>
        <linearGradient id="a">
            <stop offset="0" stop-color="#08a" stop-opacity="0" />
            <stop offset="1" stop-color="#08a" />
        </linearGradient>
        <linearGradient id="b" x1="771.0705" x2="1012.0295" y1="387.11584" y2="387.11584" gradientTransform="translate(11.951138 11.9511)"
            gradientUnits="userSpaceOnUse" xlink:href="#a" />
        <linearGradient id="c" x1="108.44698" x2="349.40598" y1="387.11536" y2="387.11536" gradientTransform="translate(11.951138 11.9511)"
            gradientUnits="userSpaceOnUse" xlink:href="#a" />
    </defs>
    <path fill="#00718e" d="M692.70121 127.99951L436.66215 384.03857c.0207-.0224.0218-.0564 0-.0781L256.02738 203.32373c-.0223-.0223-.0597-.0223-.082 0l-60.1582 60.1582c-.0223.0223-.0223.0597 0 .082L376.4239 444.19869c.0218.0218.0557.0207.0781 0l-.0254.0254c-.007.007-.007.0199 0 .0274l60.21094 60.21289c.007.007.0199.007.0273 0l316.22661-316.22659c.007-.007.007-.0199 0-.0273l-60.21289-60.21094c-.007-.007-.0199-.007-.0273 0z" />
    <path fill="#08a" d="M331.2266 128.04248l-60.12304 60.125c-.0316.0316-.0316.0836 0 .11523l255.89843 255.89844c.0311.0311.0816.03.11328 0l-.043.043c-.007.007-.007.0199 0 .0274l60.21289 60.21289c.007.007.0179.007.0254 0l240.92776-240.92782c.007-.007.007-.0199 0-.0273l-60.21094-60.21094c-.007-.007-.0199-.007-.0273 0L587.24027 384.05615c.0316-.0316.0316-.0817 0-.11328L331.34184 128.04248c-.0316-.0316-.0836-.0316-.11524 0z" />
    <g>
        <path fill="#00718e" d="M180.73492 278.62944l180.6219 180.62183c.026.026.026.0676.0003.0935l-361.337608.00017c-.026-.026-.026-.0676.0002-.0939L180.64152 278.62916c.026-.0259.068-.0257.093.00028z" />
        <path fill="url(#c)" d="M240.88058 338.78817L120.4177 459.25107c-.0262.0263-.026.0677 0 .0937h240.93942L240.88056 338.87016c-.0223-.0223-.0223-.0597 0-.082z" />
    </g>
    <g>
        <path fill="#00718e" d="M843.35864 278.62942l180.62176 180.62182c.026.0258.026.0681.0002.094l-361.33756-.00024c-.026-.0259-.026-.0678 0-.0937l180.6219-180.6219c.026-.026.068-.026.094 0z" />
        <path fill="url(#b)" d="M903.5041 338.78864l-120.46289 120.4629c-.0262.0263-.026.0677 0 .0937h240.93939L903.50408 338.87063c-.0223-.0223-.0223-.0597 0-.082z" />
    </g>
</svg>