<svg xmlns="http://www.w3.org/2000/svg" viewBox="0 0 1366 768">
    <defs>
        <style>
            .light-blue {
                fill: #0197F6;
            }

            .dark-blue2 {
                fill: #02182B;
            }
        </style>
    </defs>
    <polygon class="light-blue" points="1025.97 169.02 770.97 424.01 430.98 84.02 362.98 152.02 702.97 492.01 711.48 500.52 770.97 560.01 1093.97 237.02 1025.97 169.02" />
    <polygon class="dark-blue2" points="1008.97 152.02 940.97 84.02 600.98 424.01 345.98 169.02 277.98 237.02 600.98 560.01 665.49 495.49 665.49 495.49 1008.97 152.02" />
    <polygon class="dark-blue2" points="1366.23 509.27 1178.97 322.01 1178.97 322.01 1110.97 254.02 1110.97 254.02 1110.97 254.02 1042.97 322.01 1042.97 322.01 855.71 509.27 923.71 577.27 1110.97 390.01 1298.23 577.27 1366.23 509.27" />
    <polygon class="light-blue" points="516.25 509.3 329 322.04 329 322.04 261 254.04 261 254.04 261 254.04 193 322.04 193 322.04 5.74 509.3 73.74 577.3 261 390.04 448.25 577.3 516.25 509.3" />
</svg>